<svg xmlns="http://www.w3.org/2000/svg" version="1.1" xmlns:xlink="http://www.w3.org/1999/xlink" xmlns:svgjs="http://svgjs.dev/svgjs" width="2000" height="1999" viewBox="0 0 2000 1999"><g transform="matrix(1,0,0,1,-0.431486880466764,-0.4312711370263287)"><svg viewBox="0 0 343 343" data-background-color="#ffffff" preserveAspectRatio="xMidYMid meet" height="1999" width="2000" xmlns="http://www.w3.org/2000/svg" xmlns:xlink="http://www.w3.org/1999/xlink"><g id="tight-bounds" transform="matrix(1,0,0,1,0.0740000000000407,0.07400000000001228)"><svg viewBox="0 0 342.85155851775386 342.85155851775386" height="342.85155851775386" width="342.85155851775386"><g><svg></svg></g><g><svg viewBox="0 0 342.85155851775386 342.85155851775386" height="342.85155851775386" width="342.85155851775386"><g><path d="M0 171.426c0-94.676 76.75-171.426 171.426-171.426 94.676 0 171.426 76.75 171.426 171.426 0 94.676-76.75 171.426-171.426 171.426-94.676 0-171.426-76.75-171.426-171.426zM171.426 332.029c88.699 0 160.603-71.905 160.603-160.603 0-88.699-71.905-160.603-160.603-160.604-88.699 0-160.603 71.905-160.604 160.604 0 88.699 71.905 160.603 160.604 160.603z" data-fill-palette-color="tertiary" fill="#000000" stroke="transparent"></path><ellipse rx="164.56874808852186" ry="164.56874808852186" cx="171.42577925887693" cy="171.42577925887693" fill="#000000" stroke="transparent" stroke-width="0" fill-opacity="1" data-fill-palette-color="tertiary"></ellipse></g><g transform="matrix(1,0,0,1,64.84655864529837,111.42218476921958)"><svg viewBox="0 0 213.1584412271571 120.00718897931469" height="120.00718897931469" width="213.1584412271571"><g><svg viewBox="0 0 213.1584412271571 120.00718897931469" height="120.00718897931469" width="213.1584412271571"><g><svg viewBox="0 0 213.1584412271571 120.00718897931469" height="120.00718897931469" width="213.1584412271571"><g><svg viewBox="0 0 213.1584412271571 120.00718897931469" height="120.00718897931469" width="213.1584412271571"><g id="textblocktransform"><svg viewBox="0 0 213.1584412271571 120.00718897931469" height="120.00718897931469" width="213.1584412271571" id="textblock"><g><svg viewBox="0 0 213.1584412271571 120.00718897931469" height="120.00718897931469" width="213.1584412271571"><g transform="matrix(1,0,0,1,0,0)"><svg width="213.1584412271571" viewBox="7.079999923706055 -34.689998626708984 61.6199951171875 34.689998626708984" height="120.00718897931469" data-palette-color="#94ecbe"><path d="M17.92-31.52L11.23-31.52 11.23-19.87Q11.69-19.9 12.84-19.91 13.99-19.92 14.62-19.93 15.26-19.95 16.41-20.03 17.55-20.12 18.25-20.23 18.95-20.34 19.93-20.57 20.92-20.8 21.55-21.11 22.17-21.41 22.86-21.89 23.56-22.36 23.95-22.95 24.34-23.54 24.6-24.35 24.85-25.17 24.85-26.15L24.85-26.15Q24.85-26.88 24.71-27.54 24.56-28.2 24.1-28.96 23.63-29.71 22.9-30.25 22.17-30.79 20.89-31.15 19.6-31.52 17.92-31.52L17.92-31.52ZM11.23-16.65L11.23-16.65 11.23-3.66 17.7-3.66Q18.58-3.66 19.18-3.67 19.78-3.69 20.9-3.82 22.02-3.96 22.81-4.19 23.61-4.42 24.58-4.9 25.56-5.37 26.16-6.03 26.76-6.69 27.17-7.73 27.59-8.76 27.59-10.08L27.59-10.08Q27.59-13.33 25.07-15.16 22.56-16.99 18.31-16.99L18.31-16.99Q17.85-16.99 11.23-16.65ZM7.08 0L7.08-34.69 19.31-34.69Q21.09-34.69 22.57-34.31 24.05-33.94 25.01-33.35 25.98-32.76 26.72-31.96 27.47-31.15 27.86-30.4 28.25-29.64 28.49-28.78 28.74-27.93 28.8-27.38 28.86-26.83 28.86-26.34L28.86-26.34Q28.86-24.22 27.42-22.11 25.98-20 24.37-19.38L24.37-19.38Q27.59-18.8 29.65-16.27 31.71-13.75 31.71-10.52L31.71-10.52Q31.71-9.77 31.58-8.94 31.45-8.11 31.05-7.06 30.66-6.01 30.05-5.05 29.44-4.1 28.39-3.16 27.34-2.22 25.99-1.54 24.63-0.85 22.67-0.43 20.7 0 18.36 0L18.36 0 7.08 0ZM64.55-19.73L64.55-34.69 68.7-34.69 68.7 0 64.55 0 64.55-16.06 45.99-16.06 45.99 0 41.84 0 41.84-34.69 45.99-34.69 45.99-19.73 64.55-19.73Z" opacity="1" transform="matrix(1,0,0,1,0,0)" fill="#94ecbe" class="undefined-text-0" data-fill-palette-color="quaternary" id="text-0"></path></svg></g></svg></g></svg></g></svg></g><g></g></svg></g></svg></g></svg></g></svg></g><defs></defs></svg><rect width="342.85155851775386" height="342.85155851775386" fill="none" stroke="none" visibility="hidden"></rect></g></svg></g></svg>